<svg width="32" height="32" viewBox="0 0 32 32" fill="none" xmlns="http://www.w3.org/2000/svg">
<rect width="32" height="32" rx="16" fill="url(#paint0_linear_60_4951)"/>
<mask id="mask0_60_4951" style="mask-type:luminance" maskUnits="userSpaceOnUse" x="6" y="5" width="20" height="22">
<path d="M6.99121 14.3044C6.99121 9.17541 11.1491 5.01755 16.2781 5.01755C21.4071 5.01755 25.565 9.17542 25.565 14.3044V17.2496C25.565 22.3786 21.4071 26.5364 16.2781 26.5364C11.1491 26.5364 6.99121 22.3786 6.99121 17.2496V14.3044Z" fill="white"/>
</mask>
<g mask="url(#mask0_60_4951)">
<path fill-rule="evenodd" clip-rule="evenodd" d="M24.5536 22.4477C25.1119 22.4477 25.5645 21.9951 25.5645 21.4368V14.1527C25.5645 13.5901 25.1084 13.134 24.5457 13.134C23.9831 13.134 23.527 12.6779 23.527 12.1152V9.53444C23.527 9.25542 23.2989 9.02923 23.0198 9.02923C22.743 9.02923 22.5166 8.8048 22.5166 8.52794C22.5166 8.25108 22.2922 8.02665 22.0153 8.02665H21.9769C21.6789 8.02665 21.4372 7.78502 21.4372 7.48696V7.44588C21.4372 7.16268 21.2077 6.9331 20.9245 6.9331C20.6412 6.9331 20.4117 6.70351 20.4117 6.42031V6.40906C20.4117 6.11965 20.177 5.88503 19.8876 5.88503H18.8398C18.6002 5.88503 18.406 5.69081 18.406 5.45123C18.406 5.21164 18.2118 5.01743 17.9722 5.01743H15.7176C15.4818 5.01743 15.2907 5.20858 15.2907 5.44438C15.2907 5.68018 15.0995 5.87133 14.8637 5.87133H13.6809C13.3958 5.87133 13.1647 6.10245 13.1647 6.38754V6.40221C13.1647 6.67921 12.9401 6.90375 12.6632 6.90375C12.3862 6.90375 12.1616 7.1283 12.1616 7.40529V7.48794C12.1616 7.76925 11.9336 7.9973 11.6523 7.9973C11.3709 7.9973 11.1429 8.22535 11.1429 8.50667V8.54383C11.1429 8.82083 10.9183 9.04537 10.6414 9.04537C10.3644 9.04537 10.1398 9.26992 10.1398 9.54691V12.0639C10.1398 12.6414 9.67168 13.1095 9.0942 13.1095C8.51671 13.1095 8.04857 13.5776 8.04857 14.1551V15.6747C8.04857 15.9669 7.81166 16.2038 7.5194 16.2038C7.22715 16.2038 6.99023 16.4407 6.99023 16.733V20.8211C6.99023 21.1244 7.23613 21.3703 7.53946 21.3703C7.84278 21.3703 8.08868 21.6162 8.08868 21.9195V22.9321C8.08868 23.1967 8.30315 23.4112 8.56772 23.4112C8.83228 23.4112 9.04676 23.6257 9.04676 23.8902V25.5107C9.04676 26.0772 9.50592 26.5363 10.0723 26.5363C10.6387 26.5363 11.0979 26.0772 11.0979 25.5107V23.8924C11.0979 23.6361 10.8901 23.4283 10.6338 23.4283C10.3774 23.4283 10.1697 23.2205 10.1697 22.9642V21.9318C10.1697 21.6217 9.91828 21.3703 9.6082 21.3703C9.29812 21.3703 9.04676 21.1189 9.04676 20.8089V19.9672C9.04676 19.6639 9.29265 19.418 9.59598 19.418H9.61847C9.90938 19.418 10.1452 19.1821 10.1452 18.8912V18.8384C10.1452 18.5767 10.3574 18.3645 10.6191 18.3645C10.8808 18.3645 11.093 18.1523 11.093 17.8906V17.8378C11.093 17.5469 11.3288 17.3111 11.6197 17.3111H13.1603C13.7445 17.3111 14.2181 16.8375 14.2181 16.2532C14.2181 15.669 14.6918 15.1954 15.276 15.1954H19.3761C19.9631 15.1954 20.4391 15.6713 20.4391 16.2584V16.2821C20.4391 16.856 20.9043 17.3213 21.4783 17.3213C22.0523 17.3213 22.5176 17.7866 22.5176 18.3606V20.8566C22.5176 21.1565 22.2744 21.3997 21.9745 21.3997H21.9591C21.6676 21.3997 21.4314 21.6359 21.4314 21.9274V21.9499C21.4314 22.2289 21.2052 22.4551 20.9262 22.4551H20.9076C20.6388 22.4551 20.421 22.6729 20.421 22.9417C20.421 23.2104 20.2031 23.4283 19.9343 23.4283H16.8048C15.9449 23.4283 15.2485 24.1266 15.2508 24.9865L15.2522 25.5085C15.2537 26.0766 15.7147 26.5363 16.2828 26.5363H16.8119C17.0889 26.5363 17.3134 26.3118 17.3134 26.0348C17.3134 25.7578 17.538 25.5332 17.815 25.5332H17.8649C18.1505 25.5332 18.382 25.3017 18.382 25.0161C18.382 24.7304 18.6136 24.4989 18.8992 24.4989H22.5171C23.0835 24.4989 23.5427 24.0323 23.5427 23.4659C23.5427 22.9076 23.9953 22.4477 24.5536 22.4477ZM18.8821 20.3408C18.6065 20.3408 18.3832 20.1175 18.3832 19.842V19.3524C18.3832 18.8066 18.8257 18.364 19.3716 18.364H20.4436C20.9895 18.364 21.432 18.8066 21.432 19.3524V19.842C21.432 20.1175 21.2087 20.3408 20.9332 20.3408C20.6577 20.3408 20.4343 20.5642 20.4343 20.8397V20.8553C20.4343 21.1395 20.204 21.3698 19.9198 21.3698H19.8954C19.6112 21.3698 19.3809 21.1395 19.3809 20.8553V20.8397C19.3809 20.5642 19.1576 20.3408 18.8821 20.3408Z" fill="white"/>
</g>
<defs>
<linearGradient id="paint0_linear_60_4951" x1="16" y1="0" x2="16" y2="32" gradientUnits="userSpaceOnUse">
<stop stop-color="#192C76"/>
<stop offset="1" stop-color="#1F3B99"/>
</linearGradient>
</defs>
</svg>
