<svg width="32" height="32" viewBox="0 0 32 32" fill="none" xmlns="http://www.w3.org/2000/svg">
<path d="M32 16C32 7.16344 24.8366 0 16 0C7.16344 0 0 7.16344 0 16C0 24.8366 7.16344 32 16 32C24.8366 32 32 24.8366 32 16Z" fill="url(#paint0_linear_60_4930)"/>
<path d="M23.5271 18.287C23.527 18.2862 23.5277 18.2854 23.5286 18.2854C23.5295 18.2854 23.5302 18.2847 23.5302 18.2839C23.5291 12.2463 17.209 8.01322 15.8253 5.06166C15.6914 4.77772 15.4883 4.63013 15.2742 4.63013C15.1042 4.63013 14.9263 4.72478 14.772 4.91728C12.8765 7.28675 12.6388 9.63857 12.9694 11.623C13.2102 13.0604 13.7487 14.3069 14.1737 15.2309C14.5673 16.0876 14.55 16.5464 14.2052 16.5464C13.9911 16.5464 13.6511 16.3699 13.2055 16.0026C12.294 15.2486 11.3934 14.0615 10.8267 13.131C10.77 13.0379 10.7165 12.9465 10.6661 12.8599C10.5008 12.5711 10.2993 12.4284 10.1009 12.4284C9.8915 12.4284 9.68842 12.5904 9.54671 12.9144C8.85556 14.4834 8.62258 16.8753 8.60998 18.3961C8.6084 18.4458 8.6084 18.494 8.6084 18.5405C8.6084 22.7388 11.9492 26.143 16.0708 26.143C20.1909 26.143 23.5317 22.7388 23.5317 18.5405C23.5317 18.456 23.5302 18.3715 23.5271 18.287ZM16.0708 23.897C13.1709 23.897 10.8125 21.4939 10.8125 18.5405C10.8125 18.518 10.8109 18.494 10.8125 18.4683V18.4153C10.8125 18.356 10.8141 18.2967 10.8157 18.2357V18.202C10.8157 18.1838 10.8175 18.1652 10.8185 18.147C10.8557 17.4831 11.2826 17.3048 11.8091 17.7416C11.8122 17.7448 11.8154 17.7464 11.8185 17.7496C12.6828 18.4619 13.4417 18.7924 14.2052 18.7924C15.0538 18.7924 15.8268 18.364 16.2755 17.6469C17.1052 16.3154 16.3999 14.7818 16.1685 14.278C15.745 13.3556 15.3262 12.3497 15.142 11.2476C15.079 10.869 15.0475 10.5016 15.0475 10.1439C15.0475 10.06 15.0489 9.97606 15.0532 9.89214C15.0536 9.88359 15.0538 9.87492 15.0538 9.86636C15.057 9.79097 15.0617 9.71717 15.0696 9.64178C15.0696 9.63215 15.0696 9.62413 15.0711 9.6145C15.0743 9.57921 15.079 9.54391 15.0837 9.51183C15.1889 8.80142 15.659 8.67508 16.1613 9.23943C16.1638 9.24226 16.1658 9.24603 16.1685 9.24872C16.3432 9.44926 16.5243 9.653 16.7085 9.86155C18.7425 12.1556 21.0316 14.7368 21.2993 17.7095L21.3245 18.3705C21.3261 18.4266 21.3276 18.4843 21.3276 18.5405C21.3276 21.4939 18.9692 23.897 16.0708 23.897Z" fill="white"/>
<defs>
<linearGradient id="paint0_linear_60_4930" x1="0" y1="32" x2="32" y2="0" gradientUnits="userSpaceOnUse">
<stop stop-color="#293FFF"/>
<stop offset="1" stop-color="#7766FF"/>
</linearGradient>
</defs>
</svg>
