<svg width="32" height="32" viewBox="0 0 32 32" fill="none" xmlns="http://www.w3.org/2000/svg">
<path d="M32 16C32 7.16344 24.8366 0 16 0C7.16344 0 0 7.16344 0 16C0 24.8366 7.16344 32 16 32C24.8366 32 32 24.8366 32 16Z" fill="#19191C"/>
<path d="M21.3062 9.49713H10.7043C8.75499 9.49713 7.51948 11.5739 8.50015 13.2527L15.0432 24.4534C15.4702 25.1847 16.5403 25.1847 16.9672 24.4534L23.5117 13.2527C24.491 11.5765 23.2555 9.49713 21.3075 9.49713H21.3062ZM15.0379 21.0945L13.6129 18.3707L10.1746 12.2973C9.9478 11.9086 10.228 11.4105 10.703 11.4105H15.0366V21.0958L15.0379 21.0945ZM21.8332 12.296L18.3962 18.3721L16.9712 21.0945V11.4092H21.3048C21.7798 11.4092 22.06 11.9073 21.8332 12.296Z" fill="white"/>
</svg>
