<svg width="32" height="32" viewBox="0 0 32 32" fill="none" xmlns="http://www.w3.org/2000/svg">
<path d="M32 16C32 7.16344 24.8366 0 16 0C7.16344 0 0 7.16344 0 16C0 24.8366 7.16344 32 16 32C24.8366 32 32 24.8366 32 16Z" fill="#19191C"/>
<path fill-rule="evenodd" clip-rule="evenodd" d="M10.6313 8.08203H21.1615L25.7429 13.4792L23.9347 16.1518L14.8846 14.1526L21.8471 13.5899L19.4254 10.6592H12.3654L9.94359 13.5879L15.8954 21.424L16.9569 20.1349L14.9283 17.0752L20.2422 20.8795L15.8954 26.1852L6.04688 13.4771L10.6313 8.08203ZM21.1589 19.7996L13.4409 15.0643L23.3266 17.1334L21.1589 19.7996Z" fill="white"/>
</svg>
