<svg width="32" height="32" viewBox="0 0 32 32" fill="none" xmlns="http://www.w3.org/2000/svg">
<path d="M32 16C32 7.16344 24.8366 0 16 0C7.16344 0 0 7.16344 0 16C0 24.8366 7.16344 32 16 32C24.8366 32 32 24.8366 32 16Z" fill="#19191C"/>
<path d="M22.1023 9.61266L24.6695 14.0605L22.1023 18.5083L24.6695 22.9561H19.5352L16.968 18.5083L14.4008 22.9561L11.8336 18.5083H16.968L19.5352 14.0605H14.4008H9.26641L6.69922 9.61266H11.8336H16.968H22.1023Z" fill="white"/>
<path opacity="0.4" d="M14.4004 14.0604H19.5348L16.9676 18.5082L14.4004 14.0604Z" fill="white"/>
</svg>
