<svg width="32" height="32" viewBox="0 0 32 32" fill="none" xmlns="http://www.w3.org/2000/svg">
<path d="M32 16C32 7.16344 24.8366 0 16 0C7.16344 0 0 7.16344 0 16C0 24.8366 7.16344 32 16 32C24.8366 32 32 24.8366 32 16Z" fill="url(#paint0_linear_53_3071)"/>
<path fill-rule="evenodd" clip-rule="evenodd" d="M19.2854 19.6589C19.2773 19.6353 19.273 19.6106 19.2727 19.5857V14.4723C19.2729 14.4389 19.2653 14.4058 19.2505 14.3759C19.2357 14.3459 19.2141 14.3197 19.1875 14.2996C19.1608 14.2794 19.1297 14.2658 19.0968 14.2597C19.064 14.2537 19.0301 14.2554 18.998 14.2648L13.3184 15.9608C13.2863 15.9702 13.2524 15.972 13.2194 15.966C13.1864 15.96 13.1554 15.9464 13.1286 15.9262C13.1019 15.9061 13.0802 15.8799 13.0654 15.8499C13.0506 15.8198 13.043 15.7867 13.0432 15.7532V12.4486C13.0432 12.381 13.0747 12.3171 13.1278 12.2763L20.5292 6.57837C20.5534 6.55977 20.5813 6.54659 20.6111 6.53972C20.6408 6.53285 20.6717 6.53245 20.7016 6.53855C20.7315 6.54465 20.7598 6.55711 20.7845 6.57508C20.8092 6.59304 20.8297 6.61611 20.8447 6.6427L25.3157 14.5066C25.3476 14.562 25.3533 14.6292 25.3307 14.6897L21.5664 24.9591C21.5513 25.0005 21.5238 25.0363 21.4877 25.0614C21.4515 25.0866 21.4084 25.1 21.3644 25.0997C21.3203 25.0995 21.2774 25.0856 21.2415 25.06C21.2056 25.0344 21.1786 24.9983 21.164 24.9568L19.2854 19.6589ZM11.1482 7.02115C11.1837 6.98574 11.2306 6.9641 11.2806 6.96011L18.112 6.39666C18.3251 6.37929 18.4294 6.65397 18.2589 6.78497L12.4366 11.2602C12.4101 11.2807 12.3792 11.2946 12.3463 11.3008C12.3134 11.307 12.2795 11.3053 12.2474 11.2959L8.41308 10.1793C8.377 10.1685 8.34436 10.1484 8.31835 10.1212C8.29234 10.0939 8.27386 10.0604 8.26472 10.0238C8.25558 9.98727 8.2561 9.94897 8.26622 9.91268C8.27635 9.87639 8.29573 9.84336 8.32246 9.81681L11.1482 7.02115ZM18.1231 20.7787C18.1501 20.7597 18.1812 20.7473 18.2138 20.7424C18.2465 20.7374 18.2798 20.7402 18.3112 20.7503C18.3426 20.7605 18.3713 20.7778 18.3948 20.8009C18.4184 20.824 18.4363 20.8522 18.4471 20.8834L20.2469 25.9568C20.2601 25.9935 20.2631 26.0331 20.2557 26.0714C20.2482 26.1097 20.2305 26.1452 20.2044 26.1743C20.1784 26.2033 20.145 26.2248 20.1077 26.2363C20.0705 26.2479 20.0308 26.2491 19.9928 26.24L13.3643 24.543C13.3244 24.5324 13.2883 24.5105 13.2603 24.4801C13.2323 24.4496 13.2136 24.4118 13.2063 24.3711C13.1991 24.3304 13.2036 24.2884 13.2194 24.2502C13.2351 24.2119 13.2615 24.179 13.2953 24.1552L18.1231 20.7787ZM7.37593 11.2158C7.35966 11.2423 7.34935 11.272 7.34572 11.3029L6.39725 18.9701C6.39289 19.0043 6.39675 19.0389 6.40851 19.0713C6.42027 19.1036 6.43959 19.1327 6.46486 19.1561L11.3406 23.7045C11.3761 23.7382 11.4222 23.7584 11.4711 23.7618C11.5199 23.7653 11.5684 23.7516 11.6082 23.7233L17.9344 19.2805C17.963 19.2605 17.9863 19.2338 18.0023 19.2028C18.0183 19.1718 18.0266 19.1374 18.0264 19.1025V16.05C18.0267 16.0165 18.0191 15.9834 18.0043 15.9534C17.9895 15.9234 17.9678 15.8972 17.9411 15.877C17.9143 15.8569 17.8832 15.8432 17.8503 15.8372C17.8173 15.8312 17.7834 15.833 17.7513 15.8425L12.1111 17.5305C11.974 17.5718 11.8364 17.4676 11.8364 17.323V12.5167C11.8365 12.47 11.8215 12.4246 11.7935 12.3871C11.7656 12.3497 11.7263 12.3224 11.6815 12.3092L7.61806 11.1217C7.58815 11.1131 7.55672 11.1111 7.52597 11.1159C7.49521 11.1207 7.46587 11.1321 7.43996 11.1493C7.41405 11.1666 7.3922 11.1892 7.37593 11.2158Z" fill="white"/>
<defs>
<linearGradient id="paint0_linear_53_3071" x1="9.29548" y1="33.9237" x2="9.29548" y2="-2.10818" gradientUnits="userSpaceOnUse">
<stop stop-color="#0F6BCF"/>
<stop offset="1" stop-color="#3393FD"/>
</linearGradient>
</defs>
</svg>
