<svg width="32" height="32" viewBox="0 0 32 32" fill="none" xmlns="http://www.w3.org/2000/svg">
<rect width="32" height="32" rx="16" fill="#101729"/>
<mask id="mask0_53_3123" style="mask-type:alpha" maskUnits="userSpaceOnUse" x="7" y="5" width="18" height="22">
<path d="M7 11.0229V21.2327L15.9625 26.4713L24.925 21.2327V11.0229L15.9625 5.92694L7 11.0229Z" fill="#D9D9D9"/>
</mask>
<g mask="url(#mask0_53_3123)">
<path d="M9.21654 9.76489L11.4663 11.0577L9.21654 12.3504L6.9668 11.0577L9.21654 9.76489Z" fill="#FFE929"/>
<path d="M11.4665 8.47217L13.7163 9.76493L11.4665 11.0577L9.2168 9.76493L11.4665 8.47217Z" fill="#FFE65E"/>
<path d="M22.7146 9.76489L24.9643 11.0577L22.7146 12.3504L20.4648 11.0577L22.7146 9.76489Z" fill="#FFE65E"/>
<path d="M18.2156 7.17938L20.4653 8.47214L18.2156 9.7649L15.9658 8.47214L18.2156 7.17938Z" fill="#FFE65E"/>
<path d="M13.7165 12.3505L15.9663 13.6432L13.7165 14.936L11.4668 13.6432L13.7165 12.3505Z" fill="#FFE65E"/>
<path d="M15.9656 11.0577L18.2153 12.3504L15.9656 13.6432L13.7158 12.3504L15.9656 11.0577Z" fill="#FFE65E"/>
<path d="M13.7165 7.17938L15.9663 8.47214L13.7165 9.7649L11.4668 8.47214L13.7165 7.17938Z" fill="#FFE36A"/>
<path d="M18.2156 9.76489L20.4653 11.0577L18.2156 12.3504L15.9658 11.0577L18.2156 9.76489Z" fill="#FFE36A"/>
<path d="M11.4665 11.0577L13.7163 12.3504L11.4665 13.6432L9.2168 12.3504L11.4665 11.0577Z" fill="#FFDB2E"/>
<path d="M15.9656 5.8866L18.2153 7.17935L15.9656 8.47211L13.7158 7.17935L15.9656 5.8866Z" fill="#FFDB2E"/>
<path d="M15.9656 8.47217L18.2153 9.76493L15.9656 11.0577L13.7158 9.76493L15.9656 8.47217Z" fill="#FFDB2E"/>
<path d="M20.4656 8.47217L22.7153 9.76493L20.4656 11.0577L18.2158 9.76493L20.4656 8.47217Z" fill="#FFDB2E"/>
<path d="M20.4656 11.0577L22.7153 12.3504L20.4656 13.6432L18.2158 12.3504L20.4656 11.0577Z" fill="#FFDB2E"/>
<path d="M13.7165 9.76489L15.9663 11.0577L13.7165 12.3504L11.4668 11.0577L13.7165 9.76489Z" fill="#FFE929"/>
<path d="M15.9656 13.6432L18.2153 14.9359L15.9656 16.2287L13.7158 14.9359L15.9656 13.6432Z" fill="#FFE929"/>
<path d="M18.2156 12.3505L20.4653 13.6432L18.2156 14.936L15.9658 13.6432L18.2156 12.3505Z" fill="#FFE929"/>
<path d="M9.23327 12.3227L9.23858 14.9174L6.99415 13.6155L6.98884 11.0208L9.23327 12.3227Z" fill="#FC9800"/>
<path d="M11.4774 13.6247L11.4827 16.2194L9.23829 14.9174L9.23298 12.3227L11.4774 13.6247Z" fill="#FFAA00"/>
<path d="M15.9823 24.0128L15.9876 26.6075L13.7432 25.3055L13.7379 22.7108L15.9823 24.0128Z" fill="#FFAA00"/>
<path d="M15.9715 18.8233L15.9769 21.418L13.7324 20.116L13.7271 17.5213L15.9715 18.8233Z" fill="#FFAA00"/>
<path d="M9.24401 17.5121L9.24932 20.1068L7.00489 18.8049L6.99958 16.2102L9.24401 17.5121Z" fill="#FFAA00"/>
<path d="M11.4882 18.8141L11.4935 21.4088L9.24903 20.1068L9.24372 17.5121L11.4882 18.8141Z" fill="#FFAA00"/>
<path d="M13.7215 14.9267L13.7269 17.5214L11.4824 16.2194L11.4771 13.6247L13.7215 14.9267Z" fill="#FFAA00"/>
<path d="M13.7323 20.1161L13.7376 22.7108L11.4932 21.4088L11.4879 18.8141L13.7323 20.1161Z" fill="#FFBD1E"/>
<path d="M9.23815 14.9174L9.24346 17.5121L6.99903 16.2101L6.99372 13.6154L9.23815 14.9174Z" fill="#FFBD1E"/>
<path d="M15.9667 16.2286L15.972 18.8233L13.7275 17.5214L13.7222 14.9267L15.9667 16.2286Z" fill="#FC9800"/>
<path d="M13.7274 17.5213L13.7327 20.116L11.4883 18.8141L11.483 16.2194L13.7274 17.5213Z" fill="#FFB304"/>
<path d="M15.9774 21.4181L15.9827 24.0128L13.7383 22.7108L13.733 20.1161L15.9774 21.4181Z" fill="#FFAA00"/>
<path d="M13.7372 22.7108L13.7425 25.3055L11.4981 24.0035L11.4927 21.4088L13.7372 22.7108Z" fill="#FC9800"/>
<path d="M11.4833 16.2194L11.4886 18.8141L9.24415 17.5121L9.23884 14.9174L11.4833 16.2194Z" fill="#FC9800"/>
<path d="M9.24889 20.1069L9.2542 22.7016L7.00977 21.3997L7.00446 18.8049L9.24889 20.1069Z" fill="#FC9800"/>
<path d="M11.493 21.4088L11.4983 24.0035L9.25391 22.7015L9.2486 20.1068L11.493 21.4088Z" fill="#FFB304"/>
<path d="M22.6984 12.3227L22.6931 14.9174L24.9375 13.6155L24.9428 11.0208L22.6984 12.3227Z" fill="#C97900"/>
<path d="M20.4542 13.6247L20.4489 16.2194L22.6934 14.9174L22.6987 12.3227L20.4542 13.6247Z" fill="#E68A00"/>
<path d="M15.9493 24.0128L15.9627 26.5901L18.1885 25.3055L18.1938 22.7108L15.9493 24.0128Z" fill="#DE7F00"/>
<path d="M15.9601 18.8233L15.9548 21.418L18.1992 20.116L18.2045 17.5213L15.9601 18.8233Z" fill="#E38900"/>
<path d="M22.6876 17.5121L22.6823 20.1068L24.9268 18.8049L24.9321 16.2102L22.6876 17.5121Z" fill="#CC7400"/>
<path d="M20.4435 18.8141L20.4382 21.4088L22.6826 20.1068L22.6879 17.5121L20.4435 18.8141Z" fill="#C96E00"/>
<path d="M18.2101 14.9267L18.2048 17.5214L20.4492 16.2194L20.4545 13.6247L18.2101 14.9267Z" fill="#D18100"/>
<path d="M18.1993 20.1161L18.194 22.7108L20.4385 21.4088L20.4438 18.8141L18.1993 20.1161Z" fill="#D17E00"/>
<path d="M22.6935 14.9174L22.6882 17.5121L24.9326 16.2101L24.9379 13.6154L22.6935 14.9174Z" fill="#E68A00"/>
<path d="M15.965 16.2286L15.9597 18.8233L18.2041 17.5214L18.2094 14.9267L15.965 16.2286Z" fill="#CC7400"/>
<path d="M18.2042 17.5213L18.1989 20.116L20.4434 18.8141L20.4487 16.2194L18.2042 17.5213Z" fill="#CC7400"/>
<path d="M15.9542 21.4181L15.9489 24.0128L18.1934 22.7108L18.1987 20.1161L15.9542 21.4181Z" fill="#D17200"/>
<path d="M18.1945 22.7108L18.1892 25.3055L20.4336 24.0035L20.4389 21.4088L18.1945 22.7108Z" fill="#C47000"/>
<path d="M20.4484 16.2194L20.4431 18.8141L22.6875 17.5121L22.6928 14.9174L20.4484 16.2194Z" fill="#DB7D00"/>
<path d="M22.6827 20.1069L22.6774 22.7016L24.9219 21.3997L24.9272 18.8049L22.6827 20.1069Z" fill="#C96E00"/>
<path d="M20.4386 21.4088L20.4333 24.0035L22.6777 22.7015L22.683 20.1068L20.4386 21.4088Z" fill="#D68100"/>
</g>
</svg>
