<svg width="32" height="32" viewBox="0 0 32 32" fill="none" xmlns="http://www.w3.org/2000/svg">
<path d="M32 16C32 7.16344 24.8366 0 16 0C7.16344 0 0 7.16344 0 16C0 24.8366 7.16344 32 16 32C24.8366 32 32 24.8366 32 16Z" fill="url(#paint0_linear_426_10026)"/>
<path d="M23.5271 18.2878C23.527 18.2869 23.5277 18.2862 23.5286 18.2862C23.5295 18.2862 23.5302 18.2855 23.5302 18.2846C23.5291 12.2471 17.209 8.01395 15.8253 5.06239C15.6914 4.77846 15.4883 4.63086 15.2742 4.63086C15.1042 4.63086 14.9263 4.72552 14.772 4.91801C12.8765 7.28748 12.6388 9.6393 12.9694 11.6238C13.2102 13.0611 13.7487 14.3076 14.1737 15.2317C14.5673 16.0883 14.55 16.5471 14.2052 16.5471C13.9911 16.5471 13.6511 16.3707 13.2055 16.0033C12.294 15.2493 11.3934 14.0622 10.8267 13.1317C10.77 13.0387 10.7165 12.9472 10.6661 12.8606C10.5008 12.5718 10.2993 12.4291 10.1009 12.4291C9.8915 12.4291 9.68842 12.5911 9.54671 12.9151C8.85556 14.4841 8.62258 16.876 8.60998 18.3968C8.6084 18.4466 8.6084 18.4947 8.6084 18.5412C8.6084 22.7395 11.9492 26.1437 16.0708 26.1437C20.1909 26.1437 23.5317 22.7395 23.5317 18.5412C23.5317 18.4567 23.5302 18.3723 23.5271 18.2878ZM16.0708 23.8978C13.1709 23.8978 10.8125 21.4946 10.8125 18.5412C10.8125 18.5187 10.8109 18.4947 10.8125 18.469V18.4161C10.8125 18.3567 10.8141 18.2974 10.8157 18.2364V18.2027C10.8157 18.1845 10.8175 18.166 10.8185 18.1478C10.8557 17.4838 11.2826 17.3055 11.8091 17.7423C11.8122 17.7455 11.8154 17.7471 11.8185 17.7503C12.6828 18.4626 13.4417 18.7931 14.2052 18.7931C15.0538 18.7931 15.8268 18.3648 16.2755 17.6477C17.1052 16.3161 16.3999 14.7825 16.1685 14.2788C15.745 13.3563 15.3262 12.3505 15.142 11.2483C15.079 10.8697 15.0475 10.5024 15.0475 10.1446C15.0475 10.0607 15.0489 9.97679 15.0532 9.89287C15.0536 9.88432 15.0538 9.87565 15.0538 9.86709C15.057 9.7917 15.0617 9.7179 15.0696 9.64251C15.0696 9.63288 15.0696 9.62487 15.0711 9.61523C15.0743 9.57994 15.079 9.54465 15.0837 9.51256C15.1889 8.80215 15.659 8.67582 16.1613 9.24016C16.1638 9.24299 16.1658 9.24676 16.1685 9.24945C16.3432 9.44999 16.5243 9.65374 16.7085 9.86229C18.7425 12.1563 21.0316 14.7376 21.2993 17.7102L21.3245 18.3712C21.3261 18.4273 21.3276 18.4851 21.3276 18.5412C21.3276 21.4946 18.9692 23.8978 16.0708 23.8978Z" fill="white"/>
<defs>
<linearGradient id="paint0_linear_426_10026" x1="0" y1="32" x2="32" y2="0" gradientUnits="userSpaceOnUse">
<stop stop-color="#293FFF"/>
<stop offset="1" stop-color="#7766FF"/>
</linearGradient>
</defs>
</svg>
