<svg width="120" height="120" viewBox="0 0 120 120" fill="none" xmlns="http://www.w3.org/2000/svg">
<rect x="0.94" y="0.94" width="118.12" height="118.12" rx="59.06" fill="white"/>
<rect x="0.94" y="0.94" width="118.12" height="118.12" rx="59.06" stroke="#DDE3E6" stroke-width="1.88"/>
<path d="M53.1313 73.2313C51.3039 72.7942 49.6717 68.5278 50.1577 59.5835C50.6575 50.3742 51.0598 46.9355 54.5914 43.3596C58.3091 39.5932 57.7627 34.3061 54.066 32.1439C50.3692 29.9816 45.0845 32.1043 42.6107 35.9708C40.1369 39.8373 44.208 45.1476 45.3868 49.2559C46.8655 54.4081 48.2256 62.5455 46.6144 67.8396C45.0031 73.1359 41.5273 74.6239 41.3087 79.2716C41.0902 83.9193 43.6639 87.9624 49.3974 88.2996C55.1308 88.6367 56.6514 82.8149 57.3187 79.1298C57.8767 76.0538 60.483 72.8383 63.5497 70.6552C68.6484 67.0235 72.8776 70.0623 77.0044 66.4143C80.6314 63.2082 80.0014 55.903 80.278 52.5155C80.278 52.5155 80.3664 51.0089 83.54 48.4119C86.7136 45.8148 87.8041 46.7518 89.4199 50.5462C91.0358 54.3429 90.0733 65.8866 89.1758 69.767C88.2784 73.6451 85.2838 75.8655 84.2003 78.8833C83.1169 81.8988 83.6005 85.4142 86.2254 86.0118C89.0805 86.6651 91.9472 84.7121 93.8979 81.0712C96.4647 76.277 93.6747 74.1357 93.0214 70.9365C92.4192 67.9814 92.5238 58.249 92.5773 52.8271C92.6354 46.9285 95.0743 46.9495 94.235 42.4157C93.3957 37.882 89.4595 35.2315 86.6695 34.8502C83.8818 34.4712 83.3401 37.0147 83.6353 39.8675C83.9283 42.7017 84.5653 44.8035 80.8058 47.5633C77.5136 49.9789 75.9605 51.1345 71.4593 51.2763C66.9581 51.4181 64.0588 53.6385 63.2056 57.856C62.3546 62.0736 62.7824 66.4492 61.7989 67.5536C60.8201 68.658 56.2654 73.9822 53.1313 73.2313Z" fill="#D5D9F8"/>
<path d="M29.7208 50.4268C25.5289 50.0572 23.7595 53.5935 23.4038 59.1526C23.0481 64.7116 24.8314 68.62 28.6141 68.9989C32.3969 69.3779 35.445 66.3624 35.9751 60.6847C36.5052 55.0048 33.1061 50.7268 29.7208 50.4268Z" fill="#D5D9F8"/>
<path d="M32.1555 87.7027C31.1697 88.4769 32.7949 92.3341 36.6893 94.9218C40.5836 97.5095 43.0249 97.5909 43.8805 96.833C44.7361 96.075 43.169 92.2178 39.6606 89.937C36.1522 87.6562 33.1297 86.9378 32.1555 87.7027Z" fill="#D5D9F8"/>
<path d="M80.2125 93.4063C79.6847 91.1255 72.8283 89.505 67.0948 91.086C61.3614 92.667 58.0622 97.3402 58.6504 99.5304C59.2386 101.721 65.5603 102.239 71.4263 100.788C77.2923 99.3374 80.8332 96.0917 80.2125 93.4063Z" fill="#D5D9F8"/>
<path d="M101.029 53.5749C99.8689 53.5238 99.4992 56.2673 99.7643 61.5822C100.062 67.5761 100.976 68.341 101.922 66.9762C102.796 65.7114 102.687 60.5708 102.452 58.0552C102.185 55.2233 101.834 53.6121 101.029 53.5749Z" fill="#D5D9F8"/>
<path d="M97.1292 81.8519C96.5898 81.2497 90.8633 88.9431 91.4492 90.3149C92.0351 91.6866 97.7965 82.5959 97.1292 81.8519Z" fill="#D5D9F8"/>
<path d="M77.4898 26.1586C77.0085 28.4719 73.9558 30.1599 68.4409 29.5763C62.9283 28.9904 59.6524 25.668 59.7686 22.8501C59.8849 20.0322 66.2809 18.6325 71.2495 20.2484C76.218 21.8643 77.8897 24.2428 77.4898 26.1586Z" fill="#D5D9F8"/>
<path d="M42.9805 25.5974C44.1756 26.8343 43.3432 28.9849 39.2605 32.0191C35.1778 35.0532 32.3809 34.7719 31.6555 33.8C30.9301 32.8258 32.3041 30.0103 35.4592 27.7713C38.4933 25.6183 42.0412 24.6232 42.9805 25.5974Z" fill="#D5D9F8"/>
<path d="M75.5823 73.0094C74.1664 68.964 73.8921 58.8014 75.2266 53.4213C76.5612 48.0413 80.3416 46.2208 80.2835 41.5685C80.2254 36.9161 76.6821 33.1543 70.7766 33.1543C64.8711 33.1543 64.0201 39.0598 63.5551 42.7775C63.1668 45.8813 60.6861 49.2433 57.6682 51.6032C52.6509 55.5278 48.1287 52.7401 44.1111 56.6252C40.5795 60.0383 41.5281 65.602 41.4467 68.9988C41.4467 68.9988 41.4467 70.5101 38.3451 73.2861C35.2436 76.0622 34.5693 77.1433 32.6814 73.4489C30.7935 69.7544 30.7261 57.9132 31.4143 53.9909C32.1025 50.0663 36.148 45.8604 37.078 42.7844C38.008 39.7108 37.3012 36.2303 34.5693 35.7862C31.598 35.3026 28.7731 37.4183 26.9898 41.1662C24.6439 46.1022 26.9898 47.6786 27.8524 50.8359C28.6499 53.7491 28.701 65.602 28.5801 71.0239C28.4592 76.4458 25.9599 76.5434 27.0921 81.0191C28.2244 85.4947 31.7607 87.7174 34.6484 87.9336C37.5337 88.1498 38.0731 86.2619 37.8034 82.5675C37.5337 78.8731 38.0731 76.7015 41.2026 73.9766C44.332 71.2517 45.4503 71.5493 50.0631 71.1448C54.6759 70.7402 57.4938 68.4617 58.1146 64.2C58.7354 59.9383 58.7075 55.7579 59.6514 54.5978C60.5954 53.4376 64.6409 48.0436 67.9052 48.6109C69.807 48.941 71.588 53.1656 71.6275 62.1238C71.667 71.3471 69.9 75.6623 66.4893 79.4381C62.8995 83.4161 63.7783 88.6613 67.7029 90.6027C71.6275 92.5441 76.9262 90.1168 79.2326 86.1131C81.539 82.1025 76.9983 77.055 75.5823 73.0094Z" fill="url(#paint0_linear_516_11761)"/>
<path d="M92.0251 52.8284C88.626 52.7889 84.8153 56.7042 84.7758 62.4097C84.7362 68.1153 87.8517 71.9911 91.6531 71.9911C95.4568 71.9911 98.2073 67.8061 98.4096 62.2423C98.6095 56.674 96.2334 52.8772 92.0251 52.8284Z" fill="#4C03CF"/>
<path d="M89.1842 88.0032C88.2635 87.2964 85.4084 87.9567 82.0906 90.0608C78.7728 92.165 77.2895 95.7245 78.0986 96.4267C78.9077 97.1288 81.2141 97.0544 84.8946 94.6667C88.5774 92.2766 90.1142 88.717 89.1842 88.0032Z" fill="#460CD3"/>
<path d="M53.949 92.9439C48.6504 91.528 42.8611 92.5905 42.3915 94.697C41.8381 97.1778 45.128 100.144 50.5499 101.439C55.9718 102.735 61.7959 102.209 62.3214 100.186C62.8491 98.1636 59.2477 94.3599 53.949 92.9439Z" fill="url(#paint1_linear_516_11761)"/>
<path d="M19.9921 54.6753C19.0203 54.7566 18.6576 57.1863 18.6064 59.2532C18.5808 60.2343 18.5901 67.6209 19.7224 68.9159C20.9454 70.3132 22.0009 69.4553 22.0009 63.0894C22.0032 57.4467 21.3918 54.559 19.9921 54.6753Z" fill="#265BDB"/>
<path d="M31.0103 30.6043C30.0106 30.1788 22.6775 39.3021 24.2957 39.423C25.9139 39.5439 31.8194 30.9484 31.0103 30.6043Z" fill="#265BDB"/>
<path d="M52.6539 31.3736C59.0453 30.4017 62.6863 26.3562 62.4026 23.0803C62.119 19.8044 54.5953 18.5094 48.8897 20.653C43.1865 22.7967 41.366 25.6564 41.931 27.8675C42.6169 30.5343 46.2625 32.3431 52.6539 31.3736Z" fill="url(#paint2_linear_516_11761)"/>
<path d="M80.9928 31.6751C85.0662 34.7231 88.1073 33.7443 88.835 32.7748C89.5627 31.8029 88.0794 28.8362 84.8709 26.6786C81.6624 24.521 78.1098 23.6654 77.1658 24.635C75.9638 25.8695 76.9194 28.627 80.9928 31.6751Z" fill="#4C03CF"/>
<defs>
<linearGradient id="paint0_linear_516_11761" x1="25.9778" y1="62.2161" x2="80.2845" y2="62.2161" gradientUnits="userSpaceOnUse">
<stop stop-color="#265BDB"/>
<stop offset="1" stop-color="#4C03CF"/>
</linearGradient>
<linearGradient id="paint1_linear_516_11761" x1="42.3316" y1="97.2227" x2="62.3737" y2="97.2227" gradientUnits="userSpaceOnUse">
<stop stop-color="#303CE0"/>
<stop offset="1" stop-color="#3530D0"/>
</linearGradient>
<linearGradient id="paint2_linear_516_11761" x1="41.8349" y1="25.6191" x2="62.4189" y2="25.6191" gradientUnits="userSpaceOnUse">
<stop stop-color="#2F40D2"/>
<stop offset="1" stop-color="#3730D3"/>
</linearGradient>
</defs>
</svg>
