<svg width="32" height="32" viewBox="0 0 32 32" fill="none" xmlns="http://www.w3.org/2000/svg">
<path d="M32 16C32 7.16344 24.8366 0 16 0C7.16344 0 0 7.16344 0 16C0 24.8366 7.16344 32 16 32C24.8366 32 32 24.8366 32 16Z" fill="#4BAEF7"/>
<path d="M22.1014 9.61133L24.6686 14.0591L22.1014 18.5069L24.6686 22.9547H19.5342L16.967 18.5069L14.3998 22.9547L11.8326 18.5069H16.967L19.5342 14.0591H14.3998H9.26543L6.69824 9.61133H11.8326H16.967H22.1014Z" fill="white"/>
<path opacity="0.4" d="M14.3994 14.0586H19.5338L16.9666 18.5064L14.3994 14.0586Z" fill="white"/>
</svg>
