<svg width="400" height="400" viewBox="0 0 400 400" fill="none" xmlns="http://www.w3.org/2000/svg">
<path d="M199.81 394.529C307.274 394.529 394.39 307.413 394.39 199.949C394.39 92.4856 307.274 5.36914 199.81 5.36914C92.3469 5.36914 5.23047 92.4856 5.23047 199.949C5.23047 307.413 92.3469 394.529 199.81 394.529Z" fill="#111111"/>
<path d="M254.81 123.75H144.81C143.78 123.75 142.79 124.16 142.06 124.9L85.2205 182.15C83.7305 183.65 83.7205 186.08 85.2005 187.59L197.09 302.11C198.61 303.67 201.12 303.67 202.64 302.11L314.42 187.59C315.9 186.07 315.89 183.65 314.4 182.15L257.56 124.9C256.83 124.17 255.84 123.75 254.81 123.75ZM220.79 218.21L199.93 197.35C199.18 196.6 197.97 196.6 197.22 197.35L176.33 218.24C175.27 219.3 173.56 219.3 172.5 218.24L160.53 206.27C159.02 204.76 159.02 202.3 160.53 200.79L197.15 164.28C197.92 163.51 199.16 163.51 199.93 164.28L236.55 200.79C238.06 202.3 238.06 204.76 236.55 206.27L224.61 218.21C223.56 219.27 221.85 219.27 220.79 218.21Z" fill="url(#paint0_linear_519_9620)"/>
<defs>
<linearGradient id="paint0_linear_519_9620" x1="260.347" y1="129.4" x2="140.713" y2="243.743" gradientUnits="userSpaceOnUse">
<stop stop-color="#D0CCF1"/>
<stop offset="0.4758" stop-color="#CAE7FB"/>
<stop offset="1" stop-color="#F3F0F7"/>
</linearGradient>
</defs>
</svg>
